<svg xmlns="http://www.w3.org/2000/svg" xmlns:xlink="http://www.w3.org/1999/xlink" width="500" zoomAndPan="magnify" viewBox="0 0 375 374.999991" height="500" preserveAspectRatio="xMidYMid meet" version="1.0"><defs><clipPath id="bb9c8f5046"><path d="M 38 37.5 L 337.5 37.5 L 337.5 337 L 38 337 Z M 38 37.5 " clip-rule="nonzero"/></clipPath><clipPath id="924326f8bd"><path d="M 38 37.5 L 189 37.5 L 189 337 L 38 337 Z M 38 37.5 " clip-rule="nonzero"/></clipPath></defs><g clip-path="url(#bb9c8f5046)"><path fill="#ffc44d" d="M 48.664062 36.800781 C 45.660156 36.800781 42.804688 38.089844 40.816406 40.339844 C 38.832031 42.59375 37.90625 45.585938 38.277344 48.566406 L 66.1875 271.820312 C 66.621094 275.292969 68.761719 278.320312 71.890625 279.882812 L 183.519531 335.695312 C 186.464844 337.171875 189.933594 337.171875 192.878906 335.695312 L 304.503906 279.882812 C 307.636719 278.320312 309.777344 275.292969 310.210938 271.820312 L 338.117188 48.566406 C 338.488281 45.585938 337.5625 42.59375 335.578125 40.339844 C 333.589844 38.089844 330.734375 36.800781 327.734375 36.800781 Z M 48.664062 36.800781 " fill-opacity="1" fill-rule="nonzero"/></g><g clip-path="url(#924326f8bd)"><path fill="#e5b045" d="M 188.199219 36.800781 L 188.199219 336.800781 C 186.59375 336.800781 184.992188 336.433594 183.519531 335.695312 L 71.890625 279.882812 C 68.761719 278.320312 66.621094 275.292969 66.1875 271.820312 L 38.277344 48.566406 C 37.90625 45.585938 38.832031 42.59375 40.816406 40.339844 C 42.804688 38.089844 45.660156 36.800781 48.664062 36.800781 Z M 188.199219 36.800781 " fill-opacity="1" fill-rule="evenodd"/></g><path fill="#eceff1" d="M 96.75 82.070312 C 98.730469 79.898438 101.535156 78.664062 104.476562 78.664062 L 271.917969 78.664062 C 277.699219 78.664062 282.382812 83.347656 282.382812 89.128906 C 282.382812 94.90625 277.699219 99.59375 271.917969 99.59375 L 115.9375 99.59375 L 121.011719 155.40625 L 271.917969 155.40625 C 275.023438 155.40625 277.964844 156.785156 279.953125 159.167969 C 281.941406 161.550781 282.769531 164.691406 282.214844 167.746094 L 268.261719 244.488281 C 267.722656 247.453125 265.933594 250.039062 263.351562 251.589844 L 193.582031 293.449219 C 190.269531 295.4375 186.128906 295.4375 182.8125 293.449219 L 113.046875 251.589844 C 110.183594 249.871094 108.308594 246.890625 108.007812 243.5625 L 94.054688 90.074219 C 93.789062 87.148438 94.765625 84.242188 96.75 82.070312 Z M 122.914062 176.335938 L 128.371094 236.375 L 188.199219 272.273438 L 248.515625 236.082031 L 259.378906 176.335938 Z M 122.914062 176.335938 " fill-opacity="1" fill-rule="evenodd"/><path fill="#cfd8dc" d="M 188.199219 99.59375 L 115.9375 99.59375 L 121.011719 155.40625 L 188.199219 155.40625 L 188.199219 176.335938 L 122.914062 176.335938 L 128.371094 236.375 L 188.199219 272.273438 L 188.199219 294.941406 C 186.332031 294.941406 184.46875 294.445312 182.8125 293.449219 L 113.046875 251.589844 C 110.183594 249.871094 108.308594 246.890625 108.007812 243.5625 L 101.03125 166.820312 L 94.054688 90.074219 C 93.789062 87.148438 94.765625 84.242188 96.75 82.070312 C 98.730469 79.898438 101.535156 78.664062 104.476562 78.664062 L 188.199219 78.664062 Z M 188.199219 99.59375 " fill-opacity="1" fill-rule="evenodd"/></svg>