<svg xmlns="http://www.w3.org/2000/svg" xmlns:xlink="http://www.w3.org/1999/xlink" width="500" zoomAndPan="magnify" viewBox="0 0 375 374.999991" height="500" preserveAspectRatio="xMidYMid meet" version="1.0"><defs><clipPath id="680fb747a2"><path d="M 37.5 37.5 L 337.5 37.5 L 337.5 337.5 L 37.5 337.5 Z M 37.5 37.5 " clip-rule="nonzero"/></clipPath><clipPath id="3d684c89ba"><path d="M 187.523438 37.5 C 189.980469 37.5 192.433594 37.558594 194.882812 37.679688 C 197.335938 37.800781 199.785156 37.980469 202.226562 38.222656 C 204.671875 38.464844 207.109375 38.761719 209.535156 39.125 C 211.964844 39.484375 214.382812 39.902344 216.792969 40.382812 C 219.199219 40.863281 221.59375 41.398438 223.976562 41.996094 C 226.359375 42.59375 228.722656 43.246094 231.074219 43.960938 C 233.421875 44.671875 235.753906 45.441406 238.066406 46.269531 C 240.375 47.097656 242.667969 47.980469 244.933594 48.917969 C 247.203125 49.859375 249.445312 50.855469 251.667969 51.902344 C 253.886719 52.953125 256.078125 54.058594 258.242188 55.214844 C 260.410156 56.371094 262.542969 57.582031 264.652344 58.84375 C 266.757812 60.105469 268.832031 61.417969 270.871094 62.785156 C 272.914062 64.148438 274.921875 65.5625 276.890625 67.023438 C 278.863281 68.484375 280.800781 69.996094 282.695312 71.554688 C 284.59375 73.109375 286.453125 74.714844 288.273438 76.363281 C 290.09375 78.011719 291.871094 79.703125 293.605469 81.441406 C 295.34375 83.175781 297.035156 84.953125 298.683594 86.773438 C 300.332031 88.59375 301.933594 90.453125 303.492188 92.347656 C 305.050781 94.246094 306.558594 96.183594 308.023438 98.15625 C 309.484375 100.125 310.898438 102.132812 312.261719 104.175781 C 313.628906 106.214844 314.941406 108.289062 316.203125 110.394531 C 317.464844 112.5 318.675781 114.636719 319.832031 116.804688 C 320.988281 118.96875 322.09375 121.160156 323.144531 123.378906 C 324.191406 125.597656 325.1875 127.84375 326.125 130.113281 C 327.066406 132.378906 327.949219 134.671875 328.777344 136.980469 C 329.605469 139.292969 330.375 141.625 331.085938 143.972656 C 331.800781 146.324219 332.453125 148.6875 333.050781 151.070312 C 333.648438 153.453125 334.183594 155.847656 334.664062 158.253906 C 335.144531 160.664062 335.5625 163.082031 335.921875 165.511719 C 336.28125 167.9375 336.582031 170.375 336.824219 172.820312 C 337.066406 175.261719 337.246094 177.710938 337.367188 180.160156 C 337.488281 182.613281 337.546875 185.066406 337.546875 187.523438 C 337.546875 189.980469 337.488281 192.433594 337.367188 194.882812 C 337.246094 197.335938 337.066406 199.785156 336.824219 202.226562 C 336.582031 204.671875 336.28125 207.109375 335.921875 209.535156 C 335.5625 211.964844 335.144531 214.382812 334.664062 216.792969 C 334.183594 219.199219 333.648438 221.59375 333.050781 223.976562 C 332.453125 226.359375 331.800781 228.722656 331.085938 231.074219 C 330.375 233.421875 329.605469 235.753906 328.777344 238.066406 C 327.949219 240.375 327.066406 242.667969 326.125 244.933594 C 325.1875 247.203125 324.191406 249.445312 323.144531 251.667969 C 322.09375 253.886719 320.988281 256.078125 319.832031 258.242188 C 318.675781 260.410156 317.464844 262.542969 316.203125 264.652344 C 314.941406 266.757812 313.628906 268.832031 312.261719 270.871094 C 310.898438 272.914062 309.484375 274.921875 308.023438 276.890625 C 306.5625 278.863281 305.050781 280.800781 303.492188 282.695312 C 301.933594 284.59375 300.332031 286.453125 298.683594 288.273438 C 297.035156 290.09375 295.34375 291.871094 293.605469 293.605469 C 291.871094 295.34375 290.09375 297.035156 288.273438 298.683594 C 286.453125 300.332031 284.59375 301.933594 282.695312 303.492188 C 280.800781 305.050781 278.863281 306.558594 276.890625 308.023438 C 274.921875 309.484375 272.914062 310.898438 270.871094 312.261719 C 268.832031 313.628906 266.757812 314.941406 264.652344 316.203125 C 262.542969 317.464844 260.410156 318.675781 258.242188 319.832031 C 256.078125 320.988281 253.886719 322.09375 251.667969 323.144531 C 249.445312 324.191406 247.203125 325.1875 244.933594 326.125 C 242.667969 327.066406 240.375 327.949219 238.066406 328.777344 C 235.753906 329.605469 233.421875 330.375 231.074219 331.085938 C 228.722656 331.800781 226.359375 332.453125 223.976562 333.050781 C 221.59375 333.648438 219.199219 334.183594 216.792969 334.664062 C 214.382812 335.144531 211.964844 335.5625 209.535156 335.921875 C 207.109375 336.28125 204.671875 336.582031 202.226562 336.824219 C 199.785156 337.066406 197.335938 337.246094 194.882812 337.367188 C 192.433594 337.488281 189.980469 337.546875 187.523438 337.546875 C 185.066406 337.546875 182.613281 337.488281 180.160156 337.367188 C 177.710938 337.246094 175.261719 337.066406 172.820312 336.824219 C 170.375 336.582031 167.9375 336.28125 165.511719 335.921875 C 163.082031 335.5625 160.664062 335.144531 158.253906 334.664062 C 155.847656 334.183594 153.453125 333.648438 151.070312 333.050781 C 148.6875 332.453125 146.324219 331.800781 143.972656 331.085938 C 141.625 330.375 139.292969 329.605469 136.980469 328.777344 C 134.671875 327.949219 132.378906 327.066406 130.113281 326.125 C 127.84375 325.1875 125.597656 324.191406 123.378906 323.144531 C 121.160156 322.09375 118.96875 320.988281 116.804688 319.832031 C 114.636719 318.675781 112.5 317.464844 110.394531 316.203125 C 108.289062 314.941406 106.214844 313.628906 104.175781 312.261719 C 102.132812 310.898438 100.125 309.484375 98.15625 308.023438 C 96.183594 306.5625 94.246094 305.050781 92.347656 303.492188 C 90.453125 301.933594 88.59375 300.332031 86.773438 298.683594 C 84.953125 297.035156 83.175781 295.34375 81.441406 293.605469 C 79.703125 291.871094 78.011719 290.09375 76.363281 288.273438 C 74.714844 286.453125 73.109375 284.59375 71.554688 282.695312 C 69.996094 280.800781 68.484375 278.863281 67.023438 276.890625 C 65.5625 274.921875 64.148438 272.914062 62.785156 270.871094 C 61.417969 268.832031 60.105469 266.757812 58.84375 264.652344 C 57.582031 262.542969 56.371094 260.410156 55.214844 258.242188 C 54.058594 256.078125 52.953125 253.886719 51.902344 251.667969 C 50.855469 249.445312 49.859375 247.203125 48.917969 244.933594 C 47.980469 242.667969 47.097656 240.375 46.269531 238.066406 C 45.441406 235.753906 44.671875 233.421875 43.960938 231.074219 C 43.246094 228.722656 42.59375 226.359375 41.996094 223.976562 C 41.398438 221.59375 40.863281 219.199219 40.382812 216.792969 C 39.902344 214.382812 39.484375 211.964844 39.125 209.535156 C 38.761719 207.109375 38.464844 204.671875 38.222656 202.226562 C 37.980469 199.785156 37.800781 197.335938 37.679688 194.882812 C 37.558594 192.433594 37.5 189.980469 37.5 187.523438 C 37.5 185.066406 37.558594 182.613281 37.679688 180.160156 C 37.800781 177.710938 37.980469 175.261719 38.222656 172.820312 C 38.464844 170.375 38.761719 167.9375 39.125 165.511719 C 39.484375 163.082031 39.902344 160.664062 40.382812 158.253906 C 40.863281 155.847656 41.398438 153.453125 41.996094 151.070312 C 42.59375 148.6875 43.246094 146.324219 43.960938 143.972656 C 44.671875 141.625 45.441406 139.292969 46.269531 136.980469 C 47.097656 134.671875 47.980469 132.378906 48.917969 130.113281 C 49.859375 127.84375 50.855469 125.597656 51.902344 123.378906 C 52.953125 121.160156 54.058594 118.96875 55.214844 116.804688 C 56.371094 114.636719 57.582031 112.5 58.84375 110.394531 C 60.105469 108.289062 61.417969 106.214844 62.785156 104.175781 C 64.148438 102.132812 65.5625 100.125 67.023438 98.15625 C 68.484375 96.183594 69.996094 94.246094 71.554688 92.347656 C 73.109375 90.453125 74.714844 88.59375 76.363281 86.773438 C 78.011719 84.953125 79.703125 83.175781 81.441406 81.441406 C 83.175781 79.703125 84.953125 78.011719 86.773438 76.363281 C 88.59375 74.714844 90.453125 73.109375 92.347656 71.554688 C 94.246094 69.996094 96.183594 68.484375 98.15625 67.023438 C 100.125 65.5625 102.132812 64.148438 104.175781 62.785156 C 106.214844 61.417969 108.289062 60.105469 110.394531 58.84375 C 112.5 57.582031 114.636719 56.371094 116.804688 55.214844 C 118.96875 54.058594 121.160156 52.953125 123.378906 51.902344 C 125.597656 50.855469 127.84375 49.859375 130.113281 48.917969 C 132.378906 47.980469 134.671875 47.097656 136.980469 46.269531 C 139.292969 45.441406 141.625 44.671875 143.972656 43.960938 C 146.324219 43.246094 148.6875 42.59375 151.070312 41.996094 C 153.453125 41.398438 155.847656 40.863281 158.253906 40.382812 C 160.664062 39.902344 163.082031 39.484375 165.511719 39.125 C 167.9375 38.761719 170.375 38.464844 172.820312 38.222656 C 175.261719 37.980469 177.710938 37.800781 180.160156 37.679688 C 182.613281 37.558594 185.066406 37.5 187.523438 37.5 Z M 187.523438 37.5 " clip-rule="nonzero"/></clipPath><linearGradient x1="0.0560008" gradientTransform="matrix(1.294778, 0, 0, 1.294778, 37.500004, 37.499999)" y1="231.755988" x2="231.75599" gradientUnits="userSpaceOnUse" y2="0.0560029" id="c9834467de"><stop stop-opacity="1" stop-color="rgb(99.598694%, 75.299072%, 32.499695%)" offset="0"/><stop stop-opacity="1" stop-color="rgb(99.598694%, 75.299072%, 32.499695%)" offset="0.125"/><stop stop-opacity="1" stop-color="rgb(99.598694%, 75.299072%, 32.499695%)" offset="0.140625"/><stop stop-opacity="1" stop-color="rgb(99.583435%, 75.097656%, 32.472229%)" offset="0.144531"/><stop stop-opacity="1" stop-color="rgb(99.569702%, 74.89624%, 32.446289%)" offset="0.148438"/><stop stop-opacity="1" stop-color="rgb(99.513245%, 74.160767%, 32.350159%)" offset="0.152344"/><stop stop-opacity="1" stop-color="rgb(99.458313%, 73.425293%, 32.254028%)" offset="0.15625"/><stop stop-opacity="1" stop-color="rgb(99.403381%, 72.689819%, 32.157898%)" offset="0.160156"/><stop stop-opacity="1" stop-color="rgb(99.34845%, 71.955872%, 32.063293%)" offset="0.164062"/><stop stop-opacity="1" stop-color="rgb(99.293518%, 71.220398%, 31.967163%)" offset="0.167969"/><stop stop-opacity="1" stop-color="rgb(99.238586%, 70.484924%, 31.871033%)" offset="0.171875"/><stop stop-opacity="1" stop-color="rgb(99.183655%, 69.749451%, 31.774902%)" offset="0.175781"/><stop stop-opacity="1" stop-color="rgb(99.128723%, 69.013977%, 31.678772%)" offset="0.179688"/><stop stop-opacity="1" stop-color="rgb(99.073792%, 68.278503%, 31.582642%)" offset="0.183594"/><stop stop-opacity="1" stop-color="rgb(99.01886%, 67.54303%, 31.486511%)" offset="0.1875"/><stop stop-opacity="1" stop-color="rgb(98.963928%, 66.807556%, 31.390381%)" offset="0.191406"/><stop stop-opacity="1" stop-color="rgb(98.908997%, 66.073608%, 31.29425%)" offset="0.195312"/><stop stop-opacity="1" stop-color="rgb(98.854065%, 65.338135%, 31.19812%)" offset="0.199219"/><stop stop-opacity="1" stop-color="rgb(98.799133%, 64.602661%, 31.10199%)" offset="0.203125"/><stop stop-opacity="1" stop-color="rgb(98.744202%, 63.867188%, 31.005859%)" offset="0.207031"/><stop stop-opacity="1" stop-color="rgb(98.68927%, 63.131714%, 30.911255%)" offset="0.210938"/><stop stop-opacity="1" stop-color="rgb(98.632812%, 62.39624%, 30.815125%)" offset="0.214844"/><stop stop-opacity="1" stop-color="rgb(98.577881%, 61.660767%, 30.718994%)" offset="0.21875"/><stop stop-opacity="1" stop-color="rgb(98.522949%, 60.925293%, 30.622864%)" offset="0.222656"/><stop stop-opacity="1" stop-color="rgb(98.468018%, 60.191345%, 30.526733%)" offset="0.226562"/><stop stop-opacity="1" stop-color="rgb(98.413086%, 59.455872%, 30.430603%)" offset="0.230469"/><stop stop-opacity="1" stop-color="rgb(98.358154%, 58.720398%, 30.334473%)" offset="0.234375"/><stop stop-opacity="1" stop-color="rgb(98.303223%, 57.984924%, 30.238342%)" offset="0.238281"/><stop stop-opacity="1" stop-color="rgb(98.248291%, 57.249451%, 30.142212%)" offset="0.242188"/><stop stop-opacity="1" stop-color="rgb(98.193359%, 56.513977%, 30.046082%)" offset="0.246094"/><stop stop-opacity="1" stop-color="rgb(98.138428%, 55.780029%, 29.949951%)" offset="0.25"/><stop stop-opacity="1" stop-color="rgb(98.083496%, 55.044556%, 29.853821%)" offset="0.253906"/><stop stop-opacity="1" stop-color="rgb(98.028564%, 54.309082%, 29.75769%)" offset="0.257812"/><stop stop-opacity="1" stop-color="rgb(97.973633%, 53.573608%, 29.66156%)" offset="0.261719"/><stop stop-opacity="1" stop-color="rgb(97.918701%, 52.838135%, 29.566956%)" offset="0.265625"/><stop stop-opacity="1" stop-color="rgb(97.86377%, 52.102661%, 29.470825%)" offset="0.269531"/><stop stop-opacity="1" stop-color="rgb(97.808838%, 51.367188%, 29.374695%)" offset="0.273438"/><stop stop-opacity="1" stop-color="rgb(97.75238%, 50.631714%, 29.278564%)" offset="0.277344"/><stop stop-opacity="1" stop-color="rgb(97.697449%, 49.897766%, 29.182434%)" offset="0.28125"/><stop stop-opacity="1" stop-color="rgb(97.642517%, 49.162292%, 29.086304%)" offset="0.285156"/><stop stop-opacity="1" stop-color="rgb(97.587585%, 48.426819%, 28.990173%)" offset="0.289062"/><stop stop-opacity="1" stop-color="rgb(97.532654%, 47.691345%, 28.894043%)" offset="0.292969"/><stop stop-opacity="1" stop-color="rgb(97.477722%, 46.955872%, 28.797913%)" offset="0.296875"/><stop stop-opacity="1" stop-color="rgb(97.422791%, 46.220398%, 28.701782%)" offset="0.300781"/><stop stop-opacity="1" stop-color="rgb(97.367859%, 45.484924%, 28.605652%)" offset="0.304688"/><stop stop-opacity="1" stop-color="rgb(97.312927%, 44.749451%, 28.509521%)" offset="0.308594"/><stop stop-opacity="1" stop-color="rgb(97.257996%, 44.015503%, 28.414917%)" offset="0.3125"/><stop stop-opacity="1" stop-color="rgb(97.203064%, 43.280029%, 28.318787%)" offset="0.316406"/><stop stop-opacity="1" stop-color="rgb(97.148132%, 42.544556%, 28.222656%)" offset="0.320312"/><stop stop-opacity="1" stop-color="rgb(97.093201%, 41.809082%, 28.126526%)" offset="0.324219"/><stop stop-opacity="1" stop-color="rgb(97.038269%, 41.073608%, 28.030396%)" offset="0.328125"/><stop stop-opacity="1" stop-color="rgb(96.983337%, 40.338135%, 27.934265%)" offset="0.332031"/><stop stop-opacity="1" stop-color="rgb(96.928406%, 39.604187%, 27.838135%)" offset="0.335937"/><stop stop-opacity="1" stop-color="rgb(96.871948%, 38.868713%, 27.742004%)" offset="0.339844"/><stop stop-opacity="1" stop-color="rgb(96.817017%, 38.13324%, 27.645874%)" offset="0.34375"/><stop stop-opacity="1" stop-color="rgb(96.762085%, 37.397766%, 27.549744%)" offset="0.347656"/><stop stop-opacity="1" stop-color="rgb(96.707153%, 36.662292%, 27.453613%)" offset="0.351563"/><stop stop-opacity="1" stop-color="rgb(96.652222%, 35.926819%, 27.357483%)" offset="0.355469"/><stop stop-opacity="1" stop-color="rgb(96.59729%, 35.191345%, 27.262878%)" offset="0.359375"/><stop stop-opacity="1" stop-color="rgb(96.542358%, 34.455872%, 27.166748%)" offset="0.363281"/><stop stop-opacity="1" stop-color="rgb(96.487427%, 33.721924%, 27.070618%)" offset="0.367188"/><stop stop-opacity="1" stop-color="rgb(96.432495%, 32.98645%, 26.974487%)" offset="0.371094"/><stop stop-opacity="1" stop-color="rgb(96.377563%, 32.250977%, 26.878357%)" offset="0.375"/><stop stop-opacity="1" stop-color="rgb(96.322632%, 31.515503%, 26.782227%)" offset="0.378906"/><stop stop-opacity="1" stop-color="rgb(96.2677%, 30.780029%, 26.686096%)" offset="0.382812"/><stop stop-opacity="1" stop-color="rgb(96.212769%, 30.044556%, 26.589966%)" offset="0.386719"/><stop stop-opacity="1" stop-color="rgb(96.157837%, 29.309082%, 26.493835%)" offset="0.390625"/><stop stop-opacity="1" stop-color="rgb(96.102905%, 28.573608%, 26.397705%)" offset="0.394531"/><stop stop-opacity="1" stop-color="rgb(96.047974%, 27.839661%, 26.301575%)" offset="0.398437"/><stop stop-opacity="1" stop-color="rgb(95.991516%, 27.104187%, 26.205444%)" offset="0.402344"/><stop stop-opacity="1" stop-color="rgb(95.936584%, 26.368713%, 26.11084%)" offset="0.40625"/><stop stop-opacity="1" stop-color="rgb(95.881653%, 25.63324%, 26.014709%)" offset="0.410156"/><stop stop-opacity="1" stop-color="rgb(95.826721%, 24.897766%, 25.918579%)" offset="0.414063"/><stop stop-opacity="1" stop-color="rgb(95.77179%, 24.162292%, 25.822449%)" offset="0.417969"/><stop stop-opacity="1" stop-color="rgb(95.716858%, 23.428345%, 25.726318%)" offset="0.421875"/><stop stop-opacity="1" stop-color="rgb(95.661926%, 22.692871%, 25.630188%)" offset="0.425781"/><stop stop-opacity="1" stop-color="rgb(95.606995%, 21.957397%, 25.534058%)" offset="0.429688"/><stop stop-opacity="1" stop-color="rgb(95.552063%, 21.221924%, 25.437927%)" offset="0.433594"/><stop stop-opacity="1" stop-color="rgb(95.497131%, 20.48645%, 25.341797%)" offset="0.4375"/><stop stop-opacity="1" stop-color="rgb(95.4422%, 19.750977%, 25.245667%)" offset="0.441406"/><stop stop-opacity="1" stop-color="rgb(95.387268%, 19.015503%, 25.149536%)" offset="0.445312"/><stop stop-opacity="1" stop-color="rgb(95.332336%, 18.280029%, 25.053406%)" offset="0.449219"/><stop stop-opacity="1" stop-color="rgb(95.277405%, 17.546082%, 24.958801%)" offset="0.453125"/><stop stop-opacity="1" stop-color="rgb(95.222473%, 16.810608%, 24.862671%)" offset="0.457031"/><stop stop-opacity="1" stop-color="rgb(95.167542%, 16.075134%, 24.766541%)" offset="0.460937"/><stop stop-opacity="1" stop-color="rgb(95.111084%, 15.339661%, 24.67041%)" offset="0.464844"/><stop stop-opacity="1" stop-color="rgb(95.056152%, 14.604187%, 24.57428%)" offset="0.46875"/><stop stop-opacity="1" stop-color="rgb(95.001221%, 13.868713%, 24.478149%)" offset="0.472656"/><stop stop-opacity="1" stop-color="rgb(94.946289%, 13.13324%, 24.382019%)" offset="0.476563"/><stop stop-opacity="1" stop-color="rgb(94.621277%, 12.811279%, 24.882507%)" offset="0.480469"/><stop stop-opacity="1" stop-color="rgb(94.296265%, 12.490845%, 25.382996%)" offset="0.484375"/><stop stop-opacity="1" stop-color="rgb(93.766785%, 12.483215%, 26.33667%)" offset="0.488281"/><stop stop-opacity="1" stop-color="rgb(93.237305%, 12.477112%, 27.29187%)" offset="0.492188"/><stop stop-opacity="1" stop-color="rgb(92.707825%, 12.469482%, 28.245544%)" offset="0.496094"/><stop stop-opacity="1" stop-color="rgb(92.178345%, 12.463379%, 29.199219%)" offset="0.5"/><stop stop-opacity="1" stop-color="rgb(91.648865%, 12.45575%, 30.152893%)" offset="0.503906"/><stop stop-opacity="1" stop-color="rgb(91.119385%, 12.449646%, 31.106567%)" offset="0.507812"/><stop stop-opacity="1" stop-color="rgb(90.588379%, 12.442017%, 32.060242%)" offset="0.511719"/><stop stop-opacity="1" stop-color="rgb(90.058899%, 12.435913%, 33.015442%)" offset="0.515625"/><stop stop-opacity="1" stop-color="rgb(89.529419%, 12.428284%, 33.969116%)" offset="0.519531"/><stop stop-opacity="1" stop-color="rgb(88.999939%, 12.42218%, 34.922791%)" offset="0.523438"/><stop stop-opacity="1" stop-color="rgb(88.470459%, 12.414551%, 35.876465%)" offset="0.527344"/><stop stop-opacity="1" stop-color="rgb(87.940979%, 12.408447%, 36.830139%)" offset="0.53125"/><stop stop-opacity="1" stop-color="rgb(87.411499%, 12.400818%, 37.783813%)" offset="0.535156"/><stop stop-opacity="1" stop-color="rgb(86.882019%, 12.394714%, 38.739014%)" offset="0.539062"/><stop stop-opacity="1" stop-color="rgb(86.351013%, 12.387085%, 39.692688%)" offset="0.542969"/><stop stop-opacity="1" stop-color="rgb(85.821533%, 12.380981%, 40.646362%)" offset="0.546875"/><stop stop-opacity="1" stop-color="rgb(85.292053%, 12.373352%, 41.600037%)" offset="0.550781"/><stop stop-opacity="1" stop-color="rgb(84.762573%, 12.367249%, 42.553711%)" offset="0.554687"/><stop stop-opacity="1" stop-color="rgb(84.233093%, 12.359619%, 43.507385%)" offset="0.558594"/><stop stop-opacity="1" stop-color="rgb(83.703613%, 12.353516%, 44.46106%)" offset="0.5625"/><stop stop-opacity="1" stop-color="rgb(83.172607%, 12.345886%, 45.414734%)" offset="0.566406"/><stop stop-opacity="1" stop-color="rgb(82.643127%, 12.339783%, 46.369934%)" offset="0.570313"/><stop stop-opacity="1" stop-color="rgb(82.113647%, 12.332153%, 47.323608%)" offset="0.574219"/><stop stop-opacity="1" stop-color="rgb(81.584167%, 12.32605%, 48.277283%)" offset="0.578125"/><stop stop-opacity="1" stop-color="rgb(81.054688%, 12.31842%, 49.230957%)" offset="0.582031"/><stop stop-opacity="1" stop-color="rgb(80.525208%, 12.312317%, 50.184631%)" offset="0.585938"/><stop stop-opacity="1" stop-color="rgb(79.995728%, 12.304688%, 51.138306%)" offset="0.589844"/><stop stop-opacity="1" stop-color="rgb(79.466248%, 12.298584%, 52.093506%)" offset="0.59375"/><stop stop-opacity="1" stop-color="rgb(78.935242%, 12.290955%, 53.04718%)" offset="0.597656"/><stop stop-opacity="1" stop-color="rgb(78.405762%, 12.284851%, 54.000854%)" offset="0.601562"/><stop stop-opacity="1" stop-color="rgb(77.876282%, 12.277222%, 54.954529%)" offset="0.605469"/><stop stop-opacity="1" stop-color="rgb(77.346802%, 12.271118%, 55.908203%)" offset="0.609375"/><stop stop-opacity="1" stop-color="rgb(76.817322%, 12.263489%, 56.861877%)" offset="0.613281"/><stop stop-opacity="1" stop-color="rgb(76.287842%, 12.257385%, 57.817078%)" offset="0.617188"/><stop stop-opacity="1" stop-color="rgb(75.758362%, 12.249756%, 58.770752%)" offset="0.621094"/><stop stop-opacity="1" stop-color="rgb(75.228882%, 12.243652%, 59.724426%)" offset="0.625"/><stop stop-opacity="1" stop-color="rgb(74.697876%, 12.236023%, 60.678101%)" offset="0.628906"/><stop stop-opacity="1" stop-color="rgb(74.168396%, 12.229919%, 61.631775%)" offset="0.632812"/><stop stop-opacity="1" stop-color="rgb(73.638916%, 12.22229%, 62.585449%)" offset="0.636719"/><stop stop-opacity="1" stop-color="rgb(73.109436%, 12.216187%, 63.539124%)" offset="0.640625"/><stop stop-opacity="1" stop-color="rgb(72.579956%, 12.208557%, 64.492798%)" offset="0.644531"/><stop stop-opacity="1" stop-color="rgb(72.050476%, 12.202454%, 65.447998%)" offset="0.648438"/><stop stop-opacity="1" stop-color="rgb(71.347046%, 12.487793%, 65.937805%)" offset="0.652344"/><stop stop-opacity="1" stop-color="rgb(70.643616%, 12.774658%, 66.427612%)" offset="0.65625"/><stop stop-opacity="1" stop-color="rgb(69.88678%, 13.15155%, 66.773987%)" offset="0.660156"/><stop stop-opacity="1" stop-color="rgb(69.129944%, 13.529968%, 67.121887%)" offset="0.664062"/><stop stop-opacity="1" stop-color="rgb(68.373108%, 13.90686%, 67.468262%)" offset="0.667969"/><stop stop-opacity="1" stop-color="rgb(67.617798%, 14.285278%, 67.814636%)" offset="0.671875"/><stop stop-opacity="1" stop-color="rgb(66.860962%, 14.66217%, 68.161011%)" offset="0.675781"/><stop stop-opacity="1" stop-color="rgb(66.104126%, 15.039062%, 68.507385%)" offset="0.679687"/><stop stop-opacity="1" stop-color="rgb(65.34729%, 15.415955%, 68.85376%)" offset="0.683594"/><stop stop-opacity="1" stop-color="rgb(64.590454%, 15.794373%, 69.20166%)" offset="0.6875"/><stop stop-opacity="1" stop-color="rgb(63.833618%, 16.171265%, 69.548035%)" offset="0.691406"/><stop stop-opacity="1" stop-color="rgb(63.076782%, 16.549683%, 69.894409%)" offset="0.695313"/><stop stop-opacity="1" stop-color="rgb(62.319946%, 16.926575%, 70.240784%)" offset="0.699219"/><stop stop-opacity="1" stop-color="rgb(61.56311%, 17.303467%, 70.587158%)" offset="0.703125"/><stop stop-opacity="1" stop-color="rgb(60.806274%, 17.680359%, 70.933533%)" offset="0.707031"/><stop stop-opacity="1" stop-color="rgb(60.049438%, 18.058777%, 71.279907%)" offset="0.710938"/><stop stop-opacity="1" stop-color="rgb(59.292603%, 18.435669%, 71.626282%)" offset="0.714844"/><stop stop-opacity="1" stop-color="rgb(58.535767%, 18.814087%, 71.974182%)" offset="0.71875"/><stop stop-opacity="1" stop-color="rgb(57.778931%, 19.190979%, 72.320557%)" offset="0.722656"/><stop stop-opacity="1" stop-color="rgb(57.023621%, 19.567871%, 72.666931%)" offset="0.726562"/><stop stop-opacity="1" stop-color="rgb(56.266785%, 19.944763%, 73.013306%)" offset="0.730469"/><stop stop-opacity="1" stop-color="rgb(55.509949%, 20.323181%, 73.35968%)" offset="0.734375"/><stop stop-opacity="1" stop-color="rgb(54.753113%, 20.700073%, 73.706055%)" offset="0.738281"/><stop stop-opacity="1" stop-color="rgb(53.996277%, 21.078491%, 74.053955%)" offset="0.742188"/><stop stop-opacity="1" stop-color="rgb(53.239441%, 21.455383%, 74.40033%)" offset="0.746094"/><stop stop-opacity="1" stop-color="rgb(52.482605%, 21.832275%, 74.746704%)" offset="0.75"/><stop stop-opacity="1" stop-color="rgb(51.725769%, 22.209167%, 75.093079%)" offset="0.753906"/><stop stop-opacity="1" stop-color="rgb(50.968933%, 22.587585%, 75.439453%)" offset="0.757812"/><stop stop-opacity="1" stop-color="rgb(50.212097%, 22.964478%, 75.785828%)" offset="0.761719"/><stop stop-opacity="1" stop-color="rgb(49.455261%, 23.342896%, 76.132202%)" offset="0.765625"/><stop stop-opacity="1" stop-color="rgb(48.698425%, 23.719788%, 76.478577%)" offset="0.769531"/><stop stop-opacity="1" stop-color="rgb(47.941589%, 24.09668%, 76.826477%)" offset="0.773438"/><stop stop-opacity="1" stop-color="rgb(47.184753%, 24.473572%, 77.172852%)" offset="0.777344"/><stop stop-opacity="1" stop-color="rgb(46.429443%, 24.85199%, 77.519226%)" offset="0.78125"/><stop stop-opacity="1" stop-color="rgb(45.672607%, 25.228882%, 77.865601%)" offset="0.785156"/><stop stop-opacity="1" stop-color="rgb(44.915771%, 25.6073%, 78.211975%)" offset="0.789062"/><stop stop-opacity="1" stop-color="rgb(44.158936%, 25.984192%, 78.55835%)" offset="0.792969"/><stop stop-opacity="1" stop-color="rgb(43.4021%, 26.361084%, 78.90625%)" offset="0.796875"/><stop stop-opacity="1" stop-color="rgb(42.645264%, 26.737976%, 79.252625%)" offset="0.800781"/><stop stop-opacity="1" stop-color="rgb(41.888428%, 27.116394%, 79.598999%)" offset="0.804687"/><stop stop-opacity="1" stop-color="rgb(41.131592%, 27.493286%, 79.945374%)" offset="0.808594"/><stop stop-opacity="1" stop-color="rgb(40.374756%, 27.871704%, 80.291748%)" offset="0.8125"/><stop stop-opacity="1" stop-color="rgb(39.61792%, 28.248596%, 80.638123%)" offset="0.816406"/><stop stop-opacity="1" stop-color="rgb(38.861084%, 28.625488%, 80.984497%)" offset="0.820313"/><stop stop-opacity="1" stop-color="rgb(38.104248%, 29.00238%, 81.330872%)" offset="0.824219"/><stop stop-opacity="1" stop-color="rgb(37.347412%, 29.380798%, 81.678772%)" offset="0.828125"/><stop stop-opacity="1" stop-color="rgb(36.590576%, 29.75769%, 82.025146%)" offset="0.832031"/><stop stop-opacity="1" stop-color="rgb(35.835266%, 30.136108%, 82.371521%)" offset="0.835938"/><stop stop-opacity="1" stop-color="rgb(35.07843%, 30.513%, 82.717896%)" offset="0.839844"/><stop stop-opacity="1" stop-color="rgb(34.321594%, 30.889893%, 83.06427%)" offset="0.84375"/><stop stop-opacity="1" stop-color="rgb(33.564758%, 31.266785%, 83.410645%)" offset="0.847656"/><stop stop-opacity="1" stop-color="rgb(32.807922%, 31.645203%, 83.758545%)" offset="0.851562"/><stop stop-opacity="1" stop-color="rgb(32.653809%, 31.721497%, 83.828735%)" offset="0.859375"/><stop stop-opacity="1" stop-color="rgb(32.499695%, 31.799316%, 83.898926%)" offset="0.875"/><stop stop-opacity="1" stop-color="rgb(32.499695%, 31.799316%, 83.898926%)" offset="1"/></linearGradient></defs><g clip-path="url(#680fb747a2)"><g clip-path="url(#3d684c89ba)"><path fill="url(#c9834467de)" d="M 37.5 37.5 L 37.5 337.5 L 337.5 337.5 L 337.5 37.5 Z M 37.5 37.5 " fill-rule="nonzero"/></g></g><path fill="#ffffff" d="M 229.675781 281.867188 L 146.664062 281.867188 C 117.882812 281.867188 94.46875 258.457031 94.46875 229.675781 L 94.46875 146.664062 C 94.46875 117.882812 117.882812 94.46875 146.664062 94.46875 L 229.675781 94.46875 C 258.457031 94.46875 281.867188 117.882812 281.867188 146.664062 L 281.867188 229.675781 C 281.867188 258.457031 258.457031 281.867188 229.675781 281.867188 Z M 146.664062 107.15625 C 124.878906 107.15625 107.15625 124.878906 107.15625 146.664062 L 107.15625 229.675781 C 107.15625 251.457031 124.878906 269.179688 146.664062 269.179688 L 229.675781 269.179688 C 251.457031 269.179688 269.179688 251.457031 269.179688 229.675781 L 269.179688 146.664062 C 269.179688 124.878906 251.457031 107.15625 229.675781 107.15625 Z M 146.664062 107.15625 " fill-opacity="1" fill-rule="nonzero"/><path fill="#ffffff" d="M 188.175781 234.589844 C 162.582031 234.589844 141.761719 213.765625 141.761719 188.175781 C 141.761719 162.582031 162.582031 141.761719 188.175781 141.761719 C 213.765625 141.761719 234.589844 162.582031 234.589844 188.175781 C 234.589844 213.765625 213.765625 234.589844 188.175781 234.589844 Z M 188.175781 154.445312 C 169.574219 154.445312 154.445312 169.574219 154.445312 188.171875 C 154.445312 206.769531 169.578125 221.898438 188.175781 221.898438 C 206.769531 221.898438 221.902344 206.769531 221.902344 188.171875 C 221.902344 169.574219 206.773438 154.445312 188.175781 154.445312 Z M 188.175781 154.445312 " fill-opacity="1" fill-rule="nonzero"/></svg>