<svg xmlns="http://www.w3.org/2000/svg" xmlns:xlink="http://www.w3.org/1999/xlink" width="500" zoomAndPan="magnify" viewBox="0 0 375 374.999991" height="500" preserveAspectRatio="xMidYMid meet" version="1.0"><defs><clipPath id="2ad4963df0"><path d="M 11.894531 38 L 362.894531 38 L 362.894531 337 L 11.894531 337 Z M 11.894531 38 " clip-rule="nonzero"/></clipPath><clipPath id="7e32fac1a3"><path d="M 11.894531 23.070312 L 362.894531 23.070312 L 362.894531 351.570312 L 11.894531 351.570312 Z M 11.894531 23.070312 " clip-rule="nonzero"/></clipPath></defs><path fill="#00d8ff" d="M 218.738281 187.03125 C 218.738281 188.058594 218.691406 189.082031 218.589844 190.101562 C 218.488281 191.121094 218.335938 192.136719 218.136719 193.144531 C 217.9375 194.148438 217.6875 195.144531 217.390625 196.125 C 217.09375 197.105469 216.746094 198.070312 216.355469 199.019531 C 215.960938 199.96875 215.523438 200.894531 215.039062 201.800781 C 214.554688 202.703125 214.027344 203.582031 213.457031 204.4375 C 212.886719 205.289062 212.277344 206.113281 211.625 206.90625 C 210.972656 207.699219 210.285156 208.457031 209.558594 209.183594 C 208.832031 209.910156 208.074219 210.597656 207.28125 211.246094 C 206.488281 211.898438 205.664062 212.507812 204.808594 213.078125 C 203.957031 213.648438 203.078125 214.175781 202.171875 214.660156 C 201.265625 215.144531 200.339844 215.582031 199.390625 215.972656 C 198.441406 216.367188 197.476562 216.710938 196.496094 217.011719 C 195.511719 217.308594 194.519531 217.558594 193.511719 217.757812 C 192.503906 217.957031 191.492188 218.109375 190.46875 218.207031 C 189.445312 218.308594 188.421875 218.359375 187.398438 218.359375 C 186.371094 218.359375 185.347656 218.308594 184.324219 218.207031 C 183.304688 218.109375 182.289062 217.957031 181.28125 217.757812 C 180.273438 217.558594 179.28125 217.308594 178.296875 217.011719 C 177.316406 216.710938 176.351562 216.367188 175.402344 215.972656 C 174.453125 215.582031 173.527344 215.144531 172.621094 214.660156 C 171.714844 214.175781 170.835938 213.648438 169.984375 213.078125 C 169.128906 212.507812 168.304688 211.898438 167.511719 211.246094 C 166.71875 210.597656 165.960938 209.910156 165.234375 209.183594 C 164.507812 208.457031 163.820312 207.699219 163.167969 206.90625 C 162.515625 206.113281 161.90625 205.289062 161.335938 204.4375 C 160.765625 203.582031 160.238281 202.703125 159.753906 201.800781 C 159.269531 200.894531 158.832031 199.96875 158.4375 199.019531 C 158.046875 198.070312 157.699219 197.105469 157.402344 196.125 C 157.105469 195.144531 156.855469 194.148438 156.65625 193.144531 C 156.457031 192.136719 156.304688 191.121094 156.203125 190.101562 C 156.101562 189.082031 156.054688 188.058594 156.054688 187.03125 C 156.054688 186.003906 156.101562 184.980469 156.203125 183.960938 C 156.304688 182.941406 156.457031 181.925781 156.65625 180.917969 C 156.855469 179.914062 157.105469 178.917969 157.402344 177.9375 C 157.699219 176.957031 158.046875 175.992188 158.4375 175.042969 C 158.832031 174.09375 159.269531 173.167969 159.753906 172.261719 C 160.238281 171.359375 160.765625 170.480469 161.335938 169.625 C 161.90625 168.773438 162.515625 167.949219 163.167969 167.15625 C 163.820312 166.363281 164.507812 165.605469 165.234375 164.878906 C 165.960938 164.152344 166.71875 163.464844 167.511719 162.816406 C 168.304688 162.164062 169.128906 161.554688 169.984375 160.984375 C 170.835938 160.414062 171.714844 159.886719 172.621094 159.402344 C 173.527344 158.917969 174.453125 158.480469 175.402344 158.089844 C 176.351562 157.695312 177.316406 157.351562 178.296875 157.050781 C 179.28125 156.753906 180.273438 156.503906 181.28125 156.304688 C 182.289062 156.105469 183.304688 155.957031 184.324219 155.855469 C 185.347656 155.753906 186.371094 155.703125 187.398438 155.703125 C 188.421875 155.703125 189.445312 155.753906 190.46875 155.855469 C 191.492188 155.957031 192.503906 156.105469 193.511719 156.304688 C 194.519531 156.503906 195.511719 156.753906 196.496094 157.050781 C 197.476562 157.351562 198.441406 157.695312 199.390625 158.089844 C 200.339844 158.480469 201.265625 158.917969 202.171875 159.402344 C 203.078125 159.886719 203.957031 160.414062 204.808594 160.984375 C 205.664062 161.554688 206.488281 162.164062 207.28125 162.816406 C 208.074219 163.464844 208.832031 164.152344 209.558594 164.878906 C 210.285156 165.605469 210.972656 166.363281 211.625 167.15625 C 212.277344 167.949219 212.886719 168.773438 213.457031 169.625 C 214.027344 170.480469 214.554688 171.359375 215.039062 172.261719 C 215.523438 173.167969 215.960938 174.09375 216.355469 175.042969 C 216.746094 175.992188 217.09375 176.957031 217.390625 177.9375 C 217.6875 178.917969 217.9375 179.914062 218.136719 180.917969 C 218.335938 181.925781 218.488281 182.941406 218.589844 183.960938 C 218.691406 184.980469 218.738281 186.003906 218.738281 187.03125 Z M 218.738281 187.03125 " fill-opacity="1" fill-rule="nonzero"/><g clip-path="url(#2ad4963df0)"><path stroke-linecap="butt" transform="matrix(0.62478, 0, 0, 0.624466, 18.999547, 38.639324)" fill="none" stroke-linejoin="miter" d="M 269.533088 135.630389 C 336.888043 135.630389 399.460066 145.294891 446.63917 161.540011 C 503.484177 181.106718 538.433977 210.769545 538.433977 237.62998 C 538.433977 265.622631 501.395942 297.130784 440.349457 317.360557 C 394.201965 332.64861 333.46809 340.630426 269.533088 340.630426 C 203.978766 340.630426 141.900667 333.136527 95.227991 317.191663 C 36.18221 297.005677 0.619694 265.084672 0.619694 237.62998 C 0.619694 210.988482 33.99394 181.557103 90.038665 162.015417 C 137.392831 145.501317 201.502894 135.630389 269.526836 135.630389 Z M 269.533088 135.630389 " stroke="#00d8ff" stroke-width="24" stroke-opacity="1" stroke-miterlimit="4"/></g><g clip-path="url(#7e32fac1a3)"><path stroke-linecap="butt" transform="matrix(0.62478, 0, 0, 0.624466, 18.999547, 38.639324)" fill="none" stroke-linejoin="miter" d="M 180.739337 186.91793 C 214.38868 128.574364 254.021378 79.200957 291.659625 46.441736 C 337.013087 6.976789 380.159523 -8.480158 403.430213 4.937548 C 427.676246 18.918235 436.473092 66.752828 423.499776 129.737857 C 413.696326 177.353514 390.263079 233.945584 358.320587 289.336629 C 325.57156 346.122615 288.070862 396.159088 250.939044 428.605542 C 203.960009 469.678112 158.544025 484.534547 134.760654 470.822839 C 111.683783 457.517729 102.855676 413.899235 113.928323 355.586946 C 123.281614 306.31988 146.758627 245.849498 180.726832 186.930441 Z M 180.739337 186.91793 " stroke="#00d8ff" stroke-width="24" stroke-opacity="1" stroke-miterlimit="4"/><path stroke-linecap="butt" transform="matrix(0.62478, 0, 0, 0.624466, 18.999547, 38.639324)" fill="none" stroke-linejoin="miter" d="M 180.820615 289.480502 C 147.077489 231.199489 124.100653 172.199113 114.509777 123.232303 C 102.968215 64.231926 111.127337 19.118406 134.373018 5.656912 C 158.600295 -8.361307 204.428924 7.90258 252.514598 50.601538 C 288.871144 82.879098 326.203033 131.43931 358.233056 186.767802 C 391.075865 243.503745 415.69703 300.977819 425.269149 349.350371 C 437.385914 410.565139 427.582463 457.330068 403.817849 471.091819 C 380.759734 484.440716 338.569885 470.303646 293.579051 431.58934 C 255.565672 398.880162 214.895108 348.337006 180.814363 289.467991 Z M 180.820615 289.480502 " stroke="#00d8ff" stroke-width="24" stroke-opacity="1" stroke-miterlimit="4"/></g></svg>